<svg width="293" height="126" viewBox="0 0 293 126" fill="none" xmlns="http://www.w3.org/2000/svg">
<path d="M198.736 70.93C201.417 70.2527 203.764 69.1198 206.095 67.964C218.697 61.7182 230.203 53.7963 241.311 45.2453C248.326 39.8459 255.533 34.7181 263.92 31.536C265.632 30.8868 267.374 30.4257 269.21 30.3874C269.21 30.3899 269.21 30.3968 269.21 30.3899C270.884 30.9964 269.743 32.616 269.732 33.1511C269.696 32.9911 269.732 33.1518 269.741 33.1929C269.545 32.2319 268.968 30.8331 269.21 30.3899C270.883 29.9993 269.383 31.9993 269.744 33.2364C269.758 33.1659 269.383 31.9993 269.744 33.2364C269.383 32.9993 269.085 33.2364 268.602 33.3455C266.789 33.6608 265.164 34.4804 263.54 35.2877C256.355 38.8579 249.874 43.5044 243.587 48.4162C230.709 58.479 217.282 67.6941 202.66 75.1011C200.781 76.0541 198.897 76.9887 196.799 77.3834C193.173 78.0649 190.657 75.7533 191.054 72.0967C191.307 69.7559 192.425 67.702 193.393 65.6048C194.636 62.9164 196.041 60.2921 196.773 57.4049C197.253 55.5181 196.857 55.1009 194.972 55.621C190.754 56.7843 186.84 58.7115 182.911 60.5825C172.827 65.3858 162.969 70.669 152.571 74.8089C146.903 77.0572 141.084 78.911 135.158 80.3558C109.919 86.5507 84.866 93.4399 59.494 99.0608C43.5536 102.591 27.5437 105.796 11.5008 108.824C8.75468 109.344 5.96641 109.6 3.18886 109.917C27.4086 104.249 50.3879 94.5946 74.3004 87.962C91.1535 83.2859 107.931 78.2995 124.906 74.1114C142.251 69.8364 159.082 63.692 175.097 55.7883C180.299 53.2243 185.605 50.8506 191.151 49.0765C193.164 48.431 195.202 47.9026 197.337 47.9903C201.524 48.1579 204.187 50.9437 204.148 55.11C204.121 57.8386 203.201 60.3509 202.099 62.7977C200.969 65.2982 199.783 67.7737 198.635 70.2653C198.579 70.3653 198.67 70.5273 198.736 70.93Z" fill="#FFC37E" fill-opacity="0.7"/>
<path d="M231.997 36.8915C248.31 32.6104 264.574 28.2136 280.903 24.0872L277.836 20.3887C275.004 27.7938 272.14 35.1597 268.779 42.3437C265.692 48.9511 261.128 55.4454 259.075 62.4122C258.413 64.6158 261.478 66.0248 262.932 64.448C268.06 58.9105 271.062 50.7691 274.155 43.9477C277.419 36.8491 280.289 29.5763 282.753 22.1624C283.376 20.2615 281.197 18.5662 279.455 19.1C263.322 24.0659 247.161 28.7007 231.005 33.4416C228.764 34.0996 229.805 37.4732 232.082 36.8825L231.997 36.8915Z" fill="#FFC37E" fill-opacity="0.7"/>
</svg>
