<svg width="73" height="68" viewBox="0 0 73 68" fill="none" xmlns="http://www.w3.org/2000/svg">
<path d="M72.2156 31.7255C72.2156 52.2055 57.1783 67.7244 36.2968 67.7244C15.4154 67.7244 0 52.2055 0 31.7255C0 11.2456 13.564 0 34.4455 0C50.4793 0 72.2156 11.2456 72.2156 31.7255Z" fill="#FAF3EB" fill-opacity="0.8"/>
<path d="M72.2156 31.7255C72.2156 52.2055 57.1783 67.7244 36.2968 67.7244C15.4154 67.7244 0 52.2055 0 31.7255C0 11.2456 13.564 0 34.4455 0C50.4793 0 72.2156 11.2456 72.2156 31.7255Z" fill="#0A7373"/>
<path d="M13.2673 23.2788C13.2673 23.2788 13.5407 23.2606 14.0876 23.2241C14.6345 23.1785 15.35 23.1239 16.2341 23.0601C17.1182 22.9963 18.0798 22.937 19.1188 22.8823C20.1579 22.8185 21.1787 22.7684 22.1813 22.7319C23.1931 22.6864 24.0863 22.6636 24.861 22.6636C26.6475 22.6636 28.197 23.0008 29.5095 23.6753C30.822 24.3498 31.9066 25.2521 32.7634 26.3823C33.6201 27.5034 34.2582 28.7476 34.6774 30.1147C35.0967 31.4728 35.3063 32.84 35.3063 34.2163C35.3063 35.9299 35.0147 37.4611 34.4313 38.8101C33.848 40.159 33.0322 41.3029 31.9841 42.2417C30.945 43.1805 29.7191 43.896 28.3063 44.3882C26.9027 44.8713 25.3806 45.1128 23.7399 45.1128H13.2673V23.2788ZM21.7712 38.5366C22.2543 38.1265 22.7738 37.7163 23.3298 37.3062C23.8858 36.896 24.4099 36.4585 24.902 35.9937C25.4033 35.5288 25.8089 35.0093 26.1188 34.4351C26.4378 33.8517 26.5974 33.1818 26.5974 32.4253C26.5974 31.924 26.4925 31.4136 26.2829 30.894C26.0733 30.3745 25.7679 29.9416 25.3669 29.5952C24.975 29.2397 24.4873 29.062 23.904 29.062C23.4847 29.062 23.0882 29.1759 22.7145 29.4038C22.35 29.6317 22.0355 29.9006 21.7712 30.2104V38.5366ZM38.0134 23.2788C38.0134 23.2788 38.2686 23.2697 38.779 23.2515C39.2894 23.2241 39.9593 23.1922 40.7888 23.1558C41.6182 23.1193 42.5205 23.0874 43.4958 23.0601C44.471 23.0236 45.4326 22.9963 46.3806 22.978C47.3285 22.9507 48.1625 22.937 48.8825 22.937C51.5895 22.937 53.7269 23.1466 55.2946 23.5659C56.8714 23.9761 57.9971 24.564 58.6716 25.3296C59.346 26.0861 59.6833 26.9884 59.6833 28.0366C59.6833 29.0392 59.419 29.8823 58.8903 30.5659C58.3708 31.2404 57.5733 31.8237 56.4977 32.3159C57.2543 32.5711 57.9789 32.9357 58.6716 33.4097C59.3643 33.8836 59.9339 34.5444 60.3806 35.3921C60.8272 36.2306 61.0505 37.3426 61.0505 38.728C61.0505 40.0041 60.7862 41.0568 60.2575 41.8862C59.738 42.7157 59.0407 43.3719 58.1657 43.855C57.2907 44.3289 56.3155 44.6799 55.2399 44.9077C54.1644 45.1265 53.0707 45.2677 51.9587 45.3315C50.8467 45.3953 49.7985 45.4272 48.8141 45.4272C48.4951 45.4272 47.971 45.4181 47.2419 45.3999C46.5218 45.3817 45.7015 45.3589 44.7809 45.3315C43.8695 45.3042 42.958 45.2723 42.0466 45.2358C41.1351 45.1994 40.3148 45.1629 39.5856 45.1265C38.8656 45.0991 38.3415 45.0763 38.0134 45.0581V23.2788ZM46.5583 33.2729C47.333 32.9722 48.0759 32.6532 48.7868 32.3159C49.5069 31.9696 50.0947 31.5731 50.5505 31.1265C51.0062 30.6799 51.2341 30.1512 51.2341 29.5405C51.2341 29.1395 51.0791 28.8433 50.7692 28.6519C50.4684 28.4604 50.1631 28.3647 49.8532 28.3647C49.5433 28.3647 49.2015 28.4331 48.8278 28.5698C48.4541 28.6974 48.0987 28.8478 47.7614 29.021C47.4242 29.1942 47.1416 29.3491 46.9138 29.4858C46.695 29.6226 46.5765 29.7 46.5583 29.7183V33.2729ZM51.9587 36.6226C51.9587 36.2033 51.8265 35.9071 51.5622 35.7339C51.307 35.5607 50.988 35.4741 50.6052 35.4741C50.195 35.4741 49.7347 35.5789 49.2243 35.7886C48.7139 35.9982 48.2217 36.2352 47.7477 36.4995C47.2738 36.7638 46.8773 36.9735 46.5583 37.1284V40.5737L47.2692 40.3003C48.2171 39.9448 49.042 39.6121 49.7438 39.3022C50.4457 38.9832 50.988 38.6187 51.3708 38.2085C51.7627 37.7892 51.9587 37.2606 51.9587 36.6226Z" fill="white"/>
<mask id="path-3-outside-1_22_2" maskUnits="userSpaceOnUse" x="9.57965" y="18.3286" width="51" height="26" fill="black">
<rect fill="white" x="9.57965" y="18.3286" width="51" height="26"/>
<path d="M11.2613 20.4946C11.2613 20.4946 11.5347 20.4764 12.0816 20.4399C12.6285 20.3944 13.344 20.3397 14.2281 20.2759C15.1122 20.2121 16.0738 20.1528 17.1129 20.0981C18.1519 20.0343 19.1727 19.9842 20.1754 19.9478C21.1871 19.9022 22.0803 19.8794 22.855 19.8794C24.6415 19.8794 26.191 20.2166 27.5035 20.8911C28.816 21.5656 29.9006 22.4679 30.7574 23.5981C31.6142 24.7192 32.2522 25.9634 32.6714 27.3306C33.0907 28.6886 33.3004 30.0558 33.3004 31.4321C33.3004 33.1457 33.0087 34.6769 32.4254 36.0259C31.842 37.3748 31.0263 38.5187 29.9781 39.4575C28.939 40.3963 27.7131 41.1118 26.3004 41.604C24.8967 42.0871 23.3746 42.3286 21.7339 42.3286H11.2613V20.4946ZM19.7652 35.7524C20.2483 35.3423 20.7678 34.9321 21.3238 34.522C21.8798 34.1118 22.4039 33.6743 22.8961 33.2095C23.3974 32.7446 23.803 32.2251 24.1129 31.6509C24.4319 31.0675 24.5914 30.3976 24.5914 29.6411C24.5914 29.1398 24.4866 28.6294 24.2769 28.1099C24.0673 27.5903 23.7619 27.1574 23.3609 26.811C22.969 26.4556 22.4813 26.2778 21.898 26.2778C21.4787 26.2778 21.0823 26.3918 20.7086 26.6196C20.344 26.8475 20.0295 27.1164 19.7652 27.4263V35.7524ZM36.0074 20.4946C36.0074 20.4946 36.2626 20.4855 36.773 20.4673C37.2834 20.4399 37.9533 20.408 38.7828 20.3716C39.6122 20.3351 40.5145 20.3032 41.4898 20.2759C42.4651 20.2394 43.4267 20.2121 44.3746 20.1938C45.3225 20.1665 46.1565 20.1528 46.8765 20.1528C49.5836 20.1528 51.7209 20.3625 53.2886 20.7817C54.8655 21.1919 55.9911 21.7798 56.6656 22.5454C57.3401 23.3019 57.6773 24.2043 57.6773 25.2524C57.6773 26.255 57.413 27.0981 56.8843 27.7817C56.3648 28.4562 55.5673 29.0396 54.4918 29.5317C55.2483 29.7869 55.9729 30.1515 56.6656 30.6255C57.3583 31.0994 57.928 31.7603 58.3746 32.6079C58.8212 33.4465 59.0445 34.5584 59.0445 35.9438C59.0445 37.2199 58.7802 38.2726 58.2515 39.1021C57.732 39.9315 57.0347 40.5877 56.1597 41.0708C55.2847 41.5448 54.3095 41.8957 53.2339 42.1235C52.1584 42.3423 51.0647 42.4836 49.9527 42.5474C48.8407 42.6112 47.7925 42.6431 46.8082 42.6431C46.4892 42.6431 45.9651 42.634 45.2359 42.6157C44.5158 42.5975 43.6955 42.5747 42.775 42.5474C41.8635 42.52 40.952 42.4881 40.0406 42.4517C39.1291 42.4152 38.3088 42.3787 37.5797 42.3423C36.8596 42.3149 36.3355 42.2922 36.0074 42.2739V20.4946ZM44.5523 30.4888C45.327 30.188 46.0699 29.869 46.7808 29.5317C47.5009 29.1854 48.0888 28.7889 48.5445 28.3423C49.0002 27.8957 49.2281 27.367 49.2281 26.7563C49.2281 26.3553 49.0731 26.0591 48.7632 25.8677C48.4625 25.6763 48.1571 25.5806 47.8472 25.5806C47.5373 25.5806 47.1955 25.6489 46.8218 25.7856C46.4481 25.9132 46.0927 26.0636 45.7554 26.2368C45.4182 26.41 45.1356 26.5649 44.9078 26.7017C44.689 26.8384 44.5705 26.9159 44.5523 26.9341V30.4888ZM49.9527 33.8384C49.9527 33.4191 49.8205 33.1229 49.5562 32.9497C49.301 32.7765 48.982 32.6899 48.5992 32.6899C48.189 32.6899 47.7287 32.7948 47.2183 33.0044C46.7079 33.214 46.2157 33.451 45.7418 33.7153C45.2678 33.9797 44.8713 34.1893 44.5523 34.3442V37.7896L45.2632 37.5161C46.2112 37.1606 47.036 36.828 47.7379 36.5181C48.4397 36.1991 48.982 35.8345 49.3648 35.4243C49.7567 35.005 49.9527 34.4764 49.9527 33.8384Z"/>
</mask>
<path d="M11.2613 20.4946C11.2613 20.4946 11.5347 20.4764 12.0816 20.4399C12.6285 20.3944 13.344 20.3397 14.2281 20.2759C15.1122 20.2121 16.0738 20.1528 17.1129 20.0981C18.1519 20.0343 19.1727 19.9842 20.1754 19.9478C21.1871 19.9022 22.0803 19.8794 22.855 19.8794C24.6415 19.8794 26.191 20.2166 27.5035 20.8911C28.816 21.5656 29.9006 22.4679 30.7574 23.5981C31.6142 24.7192 32.2522 25.9634 32.6714 27.3306C33.0907 28.6886 33.3004 30.0558 33.3004 31.4321C33.3004 33.1457 33.0087 34.6769 32.4254 36.0259C31.842 37.3748 31.0263 38.5187 29.9781 39.4575C28.939 40.3963 27.7131 41.1118 26.3004 41.604C24.8967 42.0871 23.3746 42.3286 21.7339 42.3286H11.2613V20.4946ZM19.7652 35.7524C20.2483 35.3423 20.7678 34.9321 21.3238 34.522C21.8798 34.1118 22.4039 33.6743 22.8961 33.2095C23.3974 32.7446 23.803 32.2251 24.1129 31.6509C24.4319 31.0675 24.5914 30.3976 24.5914 29.6411C24.5914 29.1398 24.4866 28.6294 24.2769 28.1099C24.0673 27.5903 23.7619 27.1574 23.3609 26.811C22.969 26.4556 22.4813 26.2778 21.898 26.2778C21.4787 26.2778 21.0823 26.3918 20.7086 26.6196C20.344 26.8475 20.0295 27.1164 19.7652 27.4263V35.7524ZM36.0074 20.4946C36.0074 20.4946 36.2626 20.4855 36.773 20.4673C37.2834 20.4399 37.9533 20.408 38.7828 20.3716C39.6122 20.3351 40.5145 20.3032 41.4898 20.2759C42.4651 20.2394 43.4267 20.2121 44.3746 20.1938C45.3225 20.1665 46.1565 20.1528 46.8765 20.1528C49.5836 20.1528 51.7209 20.3625 53.2886 20.7817C54.8655 21.1919 55.9911 21.7798 56.6656 22.5454C57.3401 23.3019 57.6773 24.2043 57.6773 25.2524C57.6773 26.255 57.413 27.0981 56.8843 27.7817C56.3648 28.4562 55.5673 29.0396 54.4918 29.5317C55.2483 29.7869 55.9729 30.1515 56.6656 30.6255C57.3583 31.0994 57.928 31.7603 58.3746 32.6079C58.8212 33.4465 59.0445 34.5584 59.0445 35.9438C59.0445 37.2199 58.7802 38.2726 58.2515 39.1021C57.732 39.9315 57.0347 40.5877 56.1597 41.0708C55.2847 41.5448 54.3095 41.8957 53.2339 42.1235C52.1584 42.3423 51.0647 42.4836 49.9527 42.5474C48.8407 42.6112 47.7925 42.6431 46.8082 42.6431C46.4892 42.6431 45.9651 42.634 45.2359 42.6157C44.5158 42.5975 43.6955 42.5747 42.775 42.5474C41.8635 42.52 40.952 42.4881 40.0406 42.4517C39.1291 42.4152 38.3088 42.3787 37.5797 42.3423C36.8596 42.3149 36.3355 42.2922 36.0074 42.2739V20.4946ZM44.5523 30.4888C45.327 30.188 46.0699 29.869 46.7808 29.5317C47.5009 29.1854 48.0888 28.7889 48.5445 28.3423C49.0002 27.8957 49.2281 27.367 49.2281 26.7563C49.2281 26.3553 49.0731 26.0591 48.7632 25.8677C48.4625 25.6763 48.1571 25.5806 47.8472 25.5806C47.5373 25.5806 47.1955 25.6489 46.8218 25.7856C46.4481 25.9132 46.0927 26.0636 45.7554 26.2368C45.4182 26.41 45.1356 26.5649 44.9078 26.7017C44.689 26.8384 44.5705 26.9159 44.5523 26.9341V30.4888ZM49.9527 33.8384C49.9527 33.4191 49.8205 33.1229 49.5562 32.9497C49.301 32.7765 48.982 32.6899 48.5992 32.6899C48.189 32.6899 47.7287 32.7948 47.2183 33.0044C46.7079 33.214 46.2157 33.451 45.7418 33.7153C45.2678 33.9797 44.8713 34.1893 44.5523 34.3442V37.7896L45.2632 37.5161C46.2112 37.1606 47.036 36.828 47.7379 36.5181C48.4397 36.1991 48.982 35.8345 49.3648 35.4243C49.7567 35.005 49.9527 34.4764 49.9527 33.8384Z" fill="#FD91E6"/>
<path d="M11.2613 20.4946L11.1948 19.4968L10.2613 19.5591V20.4946H11.2613ZM12.0816 20.4399L12.1481 21.4377L12.1564 21.4372L12.1646 21.4365L12.0816 20.4399ZM17.1129 20.0981L17.1654 21.0968L17.1741 21.0963L17.1129 20.0981ZM20.1754 19.9478L20.2117 20.9471L20.2204 20.9467L20.1754 19.9478ZM30.7574 23.5981L29.9605 24.2023L29.9628 24.2054L30.7574 23.5981ZM32.6714 27.3306L31.7154 27.6238L31.7159 27.6256L32.6714 27.3306ZM32.4254 36.0259L31.5075 35.629L32.4254 36.0259ZM29.9781 39.4575L29.3109 38.7126L29.3077 38.7155L29.9781 39.4575ZM26.3004 41.604L26.6258 42.5496L26.6293 42.5483L26.3004 41.604ZM11.2613 42.3286H10.2613V43.3286H11.2613V42.3286ZM19.7652 35.7524H18.7652V37.9133L20.4124 36.5147L19.7652 35.7524ZM22.8961 33.2095L22.2161 32.4762L22.2094 32.4825L22.8961 33.2095ZM24.1129 31.6509L23.2355 31.1711L23.2328 31.1759L24.1129 31.6509ZM23.3609 26.811L22.6891 27.5518L22.6981 27.5599L22.7073 27.5679L23.3609 26.811ZM20.7086 26.6196L20.1879 25.7658L20.1786 25.7716L20.7086 26.6196ZM19.7652 27.4263L19.0044 26.7773L18.7652 27.0577V27.4263H19.7652ZM11.2613 20.4946C11.3278 21.4924 11.3278 21.4924 11.3278 21.4924C11.3278 21.4924 11.3278 21.4924 11.3278 21.4924C11.3278 21.4924 11.3278 21.4924 11.3278 21.4924C11.3278 21.4924 11.3279 21.4924 11.3279 21.4924C11.3279 21.4924 11.3279 21.4924 11.3279 21.4924C11.3279 21.4924 11.3279 21.4924 11.3279 21.4924C11.3279 21.4924 11.3279 21.4924 11.328 21.4924C11.328 21.4924 11.328 21.4924 11.328 21.4924C11.328 21.4924 11.328 21.4924 11.3281 21.4924C11.3281 21.4924 11.3281 21.4924 11.3281 21.4924C11.3282 21.4924 11.3282 21.4924 11.3283 21.4924C11.3286 21.4924 11.3282 21.4924 11.3286 21.4924C11.3287 21.4924 11.3287 21.4924 11.3288 21.4923C11.3289 21.4923 11.3289 21.4923 11.3289 21.4923C11.329 21.4923 11.329 21.4923 11.3291 21.4923C11.3291 21.4923 11.3291 21.4923 11.3292 21.4923C11.3292 21.4923 11.3293 21.4923 11.3293 21.4923C11.3293 21.4923 11.3296 21.4923 11.3296 21.4923C11.3297 21.4923 11.3301 21.4923 11.3303 21.4923C11.3303 21.4922 11.3305 21.4922 11.3306 21.4922C11.3311 21.4922 11.3306 21.4922 11.331 21.4922C11.3311 21.4922 11.3311 21.4922 11.3312 21.4922C11.3313 21.4922 11.3314 21.4922 11.3314 21.4922C11.3318 21.4921 11.3315 21.4922 11.3319 21.4921C11.3319 21.4921 11.3327 21.4921 11.3328 21.4921C11.3331 21.4921 11.3346 21.492 11.335 21.4919C11.3355 21.4919 11.337 21.4918 11.3376 21.4918C11.3377 21.4918 11.3379 21.4917 11.338 21.4917C11.3381 21.4917 11.3382 21.4917 11.3383 21.4917C11.3385 21.4917 11.3386 21.4917 11.3387 21.4917C11.3388 21.4917 11.339 21.4917 11.3391 21.4917C11.3398 21.4916 11.3399 21.4916 11.3406 21.4916C11.3423 21.4914 11.3422 21.4915 11.344 21.4913C11.3453 21.4912 11.3464 21.4912 11.3478 21.4911C11.3484 21.491 11.3493 21.491 11.3499 21.4909C11.3515 21.4908 11.3504 21.4909 11.352 21.4908C11.3533 21.4907 11.3552 21.4906 11.3566 21.4905C11.3696 21.4896 11.364 21.49 11.3791 21.489C11.4002 21.4876 11.4135 21.4867 11.4432 21.4847C11.5013 21.4808 11.4662 21.4832 11.5329 21.4787C11.5602 21.4769 11.5579 21.4771 11.5874 21.4751C11.6215 21.4728 11.6119 21.4735 11.6482 21.4711C11.691 21.4682 11.738 21.4651 11.7892 21.4617C11.82 21.4596 11.8365 21.4585 11.8693 21.4563C11.8712 21.4562 11.9519 21.4508 11.9559 21.4505C11.9673 21.4498 12.0352 21.4453 12.0488 21.4443C12.1179 21.4397 12.0769 21.4425 12.1481 21.4377L12.0816 20.4399L12.0151 19.4422C11.8761 19.4514 11.761 19.4591 11.6562 19.4661C11.6399 19.4672 11.6343 19.4675 11.6185 19.4686C11.618 19.4686 11.6145 19.4689 11.614 19.4689C11.6132 19.4689 11.6124 19.469 11.6117 19.4691C11.6109 19.4691 11.6101 19.4692 11.6094 19.4692C11.6066 19.4694 11.6076 19.4693 11.6048 19.4695C11.6041 19.4696 11.6033 19.4696 11.6026 19.4697C11.6018 19.4697 11.6011 19.4698 11.6003 19.4698C11.5912 19.4704 11.5915 19.4704 11.5825 19.471C11.5818 19.471 11.581 19.4711 11.5803 19.4711C11.5796 19.4712 11.5788 19.4712 11.5781 19.4713C11.5774 19.4713 11.5766 19.4714 11.5759 19.4714C11.5752 19.4715 11.5745 19.4715 11.5737 19.4716C11.5681 19.472 11.5706 19.4718 11.5651 19.4722C11.5585 19.4726 11.5545 19.4729 11.5481 19.4733C11.5472 19.4733 11.5405 19.4738 11.5397 19.4738C11.539 19.4739 11.5383 19.4739 11.5376 19.474C11.5369 19.474 11.5362 19.4741 11.5355 19.4741C11.5337 19.4742 11.5332 19.4743 11.5314 19.4744C11.5301 19.4745 11.5246 19.4749 11.5233 19.4749C11.5219 19.475 11.5165 19.4754 11.5152 19.4755C11.4443 19.4802 11.4622 19.479 11.3999 19.4832C11.3152 19.4888 11.2966 19.4901 11.246 19.4934C11.2242 19.4949 11.2209 19.4951 11.2076 19.496C11.2014 19.4964 11.202 19.4964 11.198 19.4966C11.1957 19.4968 11.1973 19.4967 11.1956 19.4968C11.195 19.4968 11.1954 19.4968 11.195 19.4968C11.1949 19.4968 11.1948 19.4968 11.1948 19.4968C11.1948 19.4968 11.1948 19.4968 11.1948 19.4968C11.1948 19.4968 11.1948 19.4968 11.1948 19.4968C11.1948 19.4968 11.1948 19.4968 11.2613 20.4946ZM12.0816 20.4399L12.1646 21.4365C12.7063 21.3913 13.4177 21.337 14.3001 21.2733L14.2281 20.2759L14.1561 19.2785C13.2702 19.3424 12.5507 19.3974 11.9986 19.4434L12.0816 20.4399ZM14.2281 20.2759L14.3001 21.2733C15.1767 21.21 16.1317 21.1512 17.1654 21.0968L17.1129 20.0981L17.0603 19.0995C16.0158 19.1545 15.0477 19.2141 14.1561 19.2785L14.2281 20.2759ZM17.1129 20.0981L17.1741 21.0963C18.2052 21.033 19.2177 20.9832 20.2117 20.9471L20.1754 19.9478L20.139 18.9484C19.1278 18.9852 18.0986 19.0357 17.0516 19.1L17.1129 20.0981ZM20.1754 19.9478L20.2204 20.9467C21.2213 20.9017 22.099 20.8794 22.855 20.8794V19.8794V18.8794C22.0616 18.8794 21.1528 18.9027 20.1304 18.9488L20.1754 19.9478ZM22.855 19.8794V20.8794C24.5156 20.8794 25.9021 21.1925 27.0464 21.7805L27.5035 20.8911L27.9605 20.0017C26.4799 19.2408 24.7674 18.8794 22.855 18.8794V19.8794ZM27.5035 20.8911L27.0464 21.7805C28.2312 22.3894 29.1979 23.1963 29.9605 24.2022L30.7574 23.5981L31.5543 22.994C30.6033 21.7396 29.4007 20.7418 27.9605 20.0017L27.5035 20.8911ZM30.7574 23.5981L29.9628 24.2054C30.7466 25.2309 31.3304 26.3684 31.7154 27.6238L32.6714 27.3306L33.6275 27.0374C33.1739 25.5583 32.4817 24.2076 31.5519 22.9909L30.7574 23.5981ZM32.6714 27.3306L31.7159 27.6256C32.1067 28.8912 32.3004 30.1591 32.3004 31.4321H33.3004H34.3004C34.3004 29.9526 34.0747 28.4861 33.6269 27.0356L32.6714 27.3306ZM33.3004 31.4321H32.3004C32.3004 33.0316 32.0284 34.4244 31.5075 35.629L32.4254 36.0259L33.3432 36.4228C33.989 34.9295 34.3004 33.2598 34.3004 31.4321H33.3004ZM32.4254 36.0259L31.5075 35.629C30.979 36.8512 30.2465 37.8746 29.3109 38.7126L29.9781 39.4575L30.6453 40.2024C31.806 39.1628 32.7051 37.8985 33.3432 36.4228L32.4254 36.0259ZM29.9781 39.4575L29.3077 38.7155C28.3744 39.5587 27.2667 40.2084 25.9714 40.6597L26.3004 41.604L26.6293 42.5483C28.1596 42.0152 29.5036 41.2339 30.6485 40.1995L29.9781 39.4575ZM26.3004 41.604L25.9749 40.6584C24.6864 41.1019 23.2754 41.3286 21.7339 41.3286V42.3286V43.3286C23.4737 43.3286 25.107 43.0723 26.6258 42.5496L26.3004 41.604ZM21.7339 42.3286V41.3286H11.2613V42.3286V43.3286H21.7339V42.3286ZM11.2613 42.3286H12.2613V20.4946H11.2613H10.2613V42.3286H11.2613ZM19.7652 35.7524L20.4124 36.5147C20.8767 36.1206 21.3782 35.7245 21.9174 35.3267L21.3238 34.522L20.7301 33.7172C20.1574 34.1397 19.6199 34.564 19.118 34.9901L19.7652 35.7524ZM21.3238 34.522L21.9174 35.3267C22.5053 34.893 23.0605 34.4297 23.5827 33.9365L22.8961 33.2095L22.2094 32.4825C21.7472 32.919 21.2543 33.3306 20.7301 33.7172L21.3238 34.522ZM22.8961 33.2095L23.576 33.9427C24.1538 33.4069 24.6285 32.8011 24.9929 32.1258L24.1129 31.6509L23.2328 31.1759C22.9775 31.6491 22.6409 32.0823 22.2161 32.4762L22.8961 33.2095ZM24.1129 31.6509L24.9902 32.1307C25.4002 31.381 25.5914 30.5419 25.5914 29.6411H24.5914H23.5914C23.5914 30.2533 23.4635 30.7541 23.2355 31.1711L24.1129 31.6509ZM24.5914 29.6411H25.5914C25.5914 28.9973 25.4563 28.3602 25.2043 27.7357L24.2769 28.1099L23.3496 28.4841C23.5168 28.8986 23.5914 29.2823 23.5914 29.6411H24.5914ZM24.2769 28.1099L25.2043 27.7357C24.9386 27.0773 24.5428 26.5105 24.0145 26.0542L23.3609 26.811L22.7073 27.5679C22.9811 27.8043 23.1959 28.1033 23.3496 28.4841L24.2769 28.1099ZM23.3609 26.811L24.0327 26.0703C23.4374 25.5304 22.7022 25.2778 21.898 25.2778V26.2778V27.2778C22.2605 27.2778 22.5006 27.3808 22.6891 27.5518L23.3609 26.811ZM21.898 26.2778V25.2778C21.2868 25.2778 20.7113 25.4467 20.188 25.7658L20.7086 26.6196L21.2292 27.4734C21.4533 27.3368 21.6707 27.2778 21.898 27.2778V26.2778ZM20.7086 26.6196L20.1786 25.7716C19.7321 26.0506 19.3386 26.3855 19.0044 26.7773L19.7652 27.4263L20.526 28.0752C20.7204 27.8473 20.9558 27.6443 21.2386 27.4676L20.7086 26.6196ZM19.7652 27.4263H18.7652V35.7524H19.7652H20.7652V27.4263H19.7652ZM36.0074 20.4946L35.9717 19.4953L35.0074 19.5297V20.4946H36.0074ZM36.773 20.4673L36.8087 21.4666L36.8176 21.4663L36.8265 21.4659L36.773 20.4673ZM41.4898 20.2759L41.5178 21.2755L41.5272 21.2752L41.4898 20.2759ZM44.3746 20.1938L44.3938 21.1937L44.4034 21.1934L44.3746 20.1938ZM53.2886 20.7817L53.0303 21.7478L53.0369 21.7495L53.2886 20.7817ZM56.6656 22.5454L55.9152 23.2065L55.9192 23.2109L56.6656 22.5454ZM56.8843 27.7817L56.0933 27.17L56.0921 27.1715L56.8843 27.7817ZM54.4918 29.5317L54.0756 28.6224L51.7809 29.6726L54.1721 30.4793L54.4918 29.5317ZM58.3746 32.6079L57.4899 33.0741L57.492 33.078L58.3746 32.6079ZM58.2515 39.1021L57.4082 38.5646L57.4041 38.5712L58.2515 39.1021ZM56.1597 41.0708L56.636 41.9501L56.643 41.9462L56.1597 41.0708ZM53.2339 42.1235L53.4333 43.1035L53.4412 43.1018L53.2339 42.1235ZM45.2359 42.6157L45.2106 43.6154L45.2109 43.6154L45.2359 42.6157ZM42.775 42.5474L42.745 43.5469L42.7453 43.5469L42.775 42.5474ZM37.5797 42.3423L37.6296 41.3435L37.6176 41.343L37.5797 42.3423ZM36.0074 42.2739H35.0074V43.2199L35.9519 43.2724L36.0074 42.2739ZM44.5523 30.4888H43.5523V31.9497L44.9142 31.421L44.5523 30.4888ZM46.7808 29.5317L47.2094 30.4353L47.2143 30.4329L46.7808 29.5317ZM48.5445 28.3423L49.2444 29.0565L48.5445 28.3423ZM48.7632 25.8677L48.2263 26.7114L48.2378 26.7185L48.7632 25.8677ZM46.8218 25.7856L47.145 26.732L47.1552 26.7285L47.1654 26.7248L46.8218 25.7856ZM45.7554 26.2368L46.2122 27.1264L45.7554 26.2368ZM44.9078 26.7017L44.3933 25.8442L44.3855 25.8488L44.3778 25.8537L44.9078 26.7017ZM44.5523 26.9341L43.8452 26.227L43.5523 26.5199V26.9341H44.5523ZM49.5562 32.9497L48.9947 33.7772L49.0014 33.7817L49.0082 33.7862L49.5562 32.9497ZM44.5523 34.3442L44.1154 33.4447L43.5523 33.7182V34.3442H44.5523ZM44.5523 37.7896H43.5523V39.2456L44.9113 38.7229L44.5523 37.7896ZM45.2632 37.5161L44.9121 36.5798L44.9043 36.5828L45.2632 37.5161ZM47.7379 36.5181L48.1418 37.4329L48.1517 37.4284L47.7379 36.5181ZM49.3648 35.4243L48.6343 34.7414L48.6338 34.742L49.3648 35.4243ZM36.0074 20.4946C36.0431 21.494 36.0431 21.494 36.0431 21.494C36.0431 21.494 36.0431 21.494 36.0431 21.494C36.0431 21.494 36.0431 21.494 36.0431 21.494C36.0432 21.494 36.0432 21.494 36.0433 21.494C36.0433 21.494 36.0433 21.494 36.0434 21.494C36.0434 21.494 36.0434 21.494 36.0434 21.494C36.0435 21.494 36.0435 21.494 36.0435 21.494C36.0435 21.494 36.0435 21.494 36.0436 21.494C36.0436 21.494 36.0436 21.494 36.0436 21.494C36.0437 21.494 36.0438 21.494 36.0438 21.494C36.0441 21.494 36.0443 21.4939 36.0448 21.4939C36.0448 21.4939 36.0449 21.4939 36.0449 21.4939C36.045 21.4939 36.045 21.4939 36.0451 21.4939C36.0451 21.4939 36.0453 21.4939 36.0454 21.4939C36.0454 21.4939 36.0455 21.4939 36.0455 21.4939C36.0456 21.4939 36.0456 21.4939 36.0457 21.4939C36.0458 21.4939 36.0458 21.4939 36.0459 21.4939C36.0459 21.4939 36.046 21.4939 36.0461 21.4939C36.0461 21.4939 36.0462 21.4939 36.0463 21.4939C36.0463 21.4939 36.0464 21.4939 36.0465 21.4939C36.0465 21.4939 36.0466 21.4939 36.0467 21.4939C36.0467 21.4939 36.0468 21.4939 36.0469 21.4939C36.0471 21.4938 36.0475 21.4938 36.0478 21.4938C36.048 21.4938 36.0484 21.4938 36.0487 21.4938C36.0491 21.4938 36.0489 21.4938 36.0493 21.4938C36.0493 21.4938 36.0494 21.4938 36.0495 21.4938C36.0496 21.4938 36.0497 21.4938 36.0498 21.4938C36.0499 21.4937 36.05 21.4937 36.0501 21.4937C36.0502 21.4937 36.0503 21.4937 36.0504 21.4937C36.0505 21.4937 36.0508 21.4937 36.051 21.4937C36.0519 21.4937 36.0513 21.4937 36.0522 21.4937C36.0535 21.4936 36.0537 21.4936 36.055 21.4936C36.0682 21.4931 36.0698 21.493 36.0909 21.4923C36.096 21.4921 36.1975 21.4885 36.2345 21.4872C36.3016 21.4848 36.3747 21.4821 36.4737 21.4786C36.5035 21.4775 36.5915 21.4744 36.6293 21.4731C36.6439 21.4725 36.6994 21.4706 36.716 21.47C36.7201 21.4698 36.7344 21.4693 36.7386 21.4692C36.7541 21.4686 36.7459 21.4689 36.7616 21.4683C36.7621 21.4683 36.8078 21.4667 36.8087 21.4666L36.773 20.4673L36.7373 19.4679C36.6624 19.4706 36.4453 19.4784 36.4024 19.4799C36.3399 19.4821 36.394 19.4802 36.3336 19.4823C36.3054 19.4833 36.3291 19.4825 36.3014 19.4835C36.2922 19.4838 36.2795 19.4843 36.2708 19.4846C36.2382 19.4857 36.2446 19.4855 36.2139 19.4866C36.1863 19.4876 36.1887 19.4875 36.1631 19.4884C36.1521 19.4888 36.0823 19.4913 36.0794 19.4914C36.0424 19.4927 36.0486 19.4925 36.0195 19.4936C36.0192 19.4936 36.014 19.4938 36.0138 19.4938C36.0109 19.4939 36.011 19.4939 36.0083 19.494C36.0081 19.494 36.006 19.494 36.0058 19.494C36.0051 19.4941 36.0052 19.4941 36.0045 19.4941C36.0043 19.4941 36.0041 19.4941 36.0039 19.4941C36.0037 19.4941 36.0035 19.4941 36.0033 19.4941C36.0031 19.4941 36.0029 19.4942 36.0027 19.4942C36.0025 19.4942 36.0023 19.4942 36.0021 19.4942C36.0019 19.4942 36.0017 19.4942 36.0015 19.4942C36.0013 19.4942 36.0011 19.4942 36.0009 19.4942C36.0007 19.4942 36.0005 19.4942 36.0003 19.4942C36.0001 19.4943 35.9999 19.4943 35.9997 19.4943C35.9996 19.4943 35.9994 19.4943 35.9992 19.4943C35.999 19.4943 35.9988 19.4943 35.9986 19.4943C35.9984 19.4943 35.9982 19.4943 35.9981 19.4943C35.9979 19.4943 35.9977 19.4943 35.9975 19.4943C35.9973 19.4944 35.9971 19.4944 35.997 19.4944C35.9968 19.4944 35.9966 19.4944 35.9964 19.4944C35.9962 19.4944 35.9961 19.4944 35.9959 19.4944C35.9957 19.4944 35.9955 19.4944 35.9953 19.4944C35.9952 19.4944 35.995 19.4944 35.9948 19.4944C35.9947 19.4944 35.9945 19.4945 35.9943 19.4945C35.9941 19.4945 35.994 19.4945 35.9938 19.4945C35.9936 19.4945 35.9935 19.4945 35.9933 19.4945C35.9931 19.4945 35.993 19.4945 35.9928 19.4945C35.9926 19.4945 35.9925 19.4945 35.9923 19.4945C35.9919 19.4945 35.9918 19.4945 35.9913 19.4946C35.9912 19.4946 35.991 19.4946 35.9909 19.4946C35.9907 19.4946 35.9905 19.4946 35.9904 19.4946C35.99 19.4946 35.987 19.4947 35.9868 19.4947C35.9849 19.4948 35.9855 19.4948 35.9837 19.4948C35.9807 19.4949 35.9809 19.4949 35.9784 19.495C35.9768 19.4951 35.9759 19.4951 35.9747 19.4952C35.9737 19.4952 35.9742 19.4952 35.9734 19.4952C35.9731 19.4952 35.9731 19.4952 35.9729 19.4952C35.9728 19.4952 35.9727 19.4952 35.9726 19.4952C35.9726 19.4952 35.9725 19.4952 35.9724 19.4952C35.9722 19.4952 35.9723 19.4952 35.9721 19.4953C35.9719 19.4953 35.9721 19.4953 35.9719 19.4953C35.9719 19.4953 35.9719 19.4953 35.9718 19.4953C35.9718 19.4953 35.9718 19.4953 35.9718 19.4953C35.9718 19.4953 35.9718 19.4953 35.9717 19.4953C35.9717 19.4953 35.9717 19.4953 35.9717 19.4953C35.9717 19.4953 35.9717 19.4953 35.9717 19.4953C35.9717 19.4953 35.9717 19.4953 35.9717 19.4953C35.9717 19.4953 35.9717 19.4953 36.0074 20.4946ZM36.773 20.4673L36.8265 21.4659C37.3324 21.4388 37.9988 21.407 38.8267 21.3706L38.7828 20.3716L38.7389 19.3725C37.9079 19.4091 37.2345 19.4411 36.7195 19.4687L36.773 20.4673ZM38.7828 20.3716L38.8267 21.3706C39.65 21.3344 40.547 21.3027 41.5178 21.2755L41.4898 20.2759L41.4618 19.2763C40.4821 19.3037 39.5744 19.3358 38.7389 19.3725L38.7828 20.3716ZM41.4898 20.2759L41.5272 21.2752C42.4966 21.2389 43.4521 21.2118 44.3938 21.1937L44.3746 20.1938L44.3553 19.194C43.4012 19.2124 42.4336 19.2399 41.4524 19.2766L41.4898 20.2759ZM44.3746 20.1938L44.4034 21.1934C45.3445 21.1663 46.1685 21.1528 46.8765 21.1528V20.1528V19.1528C46.1444 19.1528 45.3005 19.1667 44.3457 19.1943L44.3746 20.1938ZM46.8765 20.1528V21.1528C49.5461 21.1528 51.5842 21.361 53.0303 21.7478L53.2886 20.7817L53.547 19.8157C51.8576 19.3639 49.621 19.1528 46.8765 19.1528V20.1528ZM53.2886 20.7817L53.0369 21.7495C54.5262 22.1369 55.4299 22.6555 55.9152 23.2064L56.6656 22.5454L57.4159 21.8844C56.5523 20.904 55.2047 20.2469 53.5404 19.8139L53.2886 20.7817ZM56.6656 22.5454L55.9192 23.2109C56.4243 23.7774 56.6773 24.4405 56.6773 25.2524H57.6773H58.6773C58.6773 23.9681 58.2558 22.8264 57.412 21.8799L56.6656 22.5454ZM57.6773 25.2524H56.6773C56.6773 26.0706 56.4655 26.6887 56.0933 27.17L56.8843 27.7817L57.6754 28.3935C58.3605 27.5076 58.6773 26.4395 58.6773 25.2524H57.6773ZM56.8843 27.7817L56.0921 27.1715C55.7028 27.6769 55.0578 28.173 54.0756 28.6224L54.4918 29.5317L54.9079 30.441C56.0768 29.9061 57.0268 29.2355 57.6766 28.392L56.8843 27.7817ZM54.4918 29.5317L54.1721 30.4793C54.8374 30.7037 55.48 31.026 56.1009 31.4508L56.6656 30.6255L57.2303 29.8002C56.4658 29.2771 55.6592 28.8702 54.8114 28.5842L54.4918 29.5317ZM56.6656 30.6255L56.1009 31.4508C56.6413 31.8206 57.1083 32.3498 57.4899 33.074L58.3746 32.6079L59.2593 32.1418C58.7476 31.1707 58.0752 30.3783 57.2303 29.8002L56.6656 30.6255ZM58.3746 32.6079L57.492 33.078C57.8343 33.7207 58.0445 34.6525 58.0445 35.9438H59.0445H60.0445C60.0445 34.4643 59.8081 33.1722 59.2572 32.1378L58.3746 32.6079ZM59.0445 35.9438H58.0445C58.0445 37.0852 57.8082 37.937 57.4082 38.5646L58.2515 39.1021L59.0948 39.6395C59.7521 38.6082 60.0445 37.3545 60.0445 35.9438H59.0445ZM58.2515 39.1021L57.4041 38.5712C56.9767 39.2536 56.406 39.7925 55.6764 40.1954L56.1597 41.0708L56.643 41.9462C57.6634 41.3829 58.4873 40.6094 59.099 39.6329L58.2515 39.1021ZM56.1597 41.0708L55.6834 40.1915C54.9012 40.6152 54.018 40.9352 53.0267 41.1453L53.2339 42.1235L53.4412 43.1018C54.601 42.8561 55.6682 42.4743 56.636 41.9501L56.1597 41.0708ZM53.2339 42.1235L53.0346 41.1436C52.0066 41.3527 50.9604 41.4879 49.8954 41.549L49.9527 42.5474L50.01 43.5457C51.169 43.4792 52.3102 43.3319 53.4333 43.1035L53.2339 42.1235ZM49.9527 42.5474L49.8954 41.549C48.8001 41.6119 47.7711 41.6431 46.8082 41.6431V42.6431V43.6431C47.8139 43.6431 48.8814 43.6105 50.01 43.5457L49.9527 42.5474ZM46.8082 42.6431V41.6431C46.5027 41.6431 45.9895 41.6343 45.2609 41.616L45.2359 42.6157L45.2109 43.6154C45.9406 43.6337 46.4756 43.6431 46.8082 43.6431V42.6431ZM45.2359 42.6157L45.2612 41.616C44.543 41.5979 43.7241 41.5751 42.8047 41.5478L42.775 42.5474L42.7453 43.5469C43.6669 43.5743 44.4887 43.5971 45.2106 43.6154L45.2359 42.6157ZM42.775 42.5474L42.805 41.5478C41.8968 41.5206 40.9887 41.4888 40.0806 41.4525L40.0406 42.4517L40.0006 43.4509C40.9154 43.4875 41.8302 43.5195 42.745 43.5469L42.775 42.5474ZM40.0406 42.4517L40.0806 41.4525C39.1716 41.4161 38.3547 41.3798 37.6296 41.3435L37.5797 42.3423L37.5297 43.341C38.2629 43.3777 39.0866 43.4143 40.0006 43.4509L40.0406 42.4517ZM37.5797 42.3423L37.6176 41.343C36.8982 41.3157 36.3816 41.2932 36.0629 41.2755L36.0074 42.2739L35.9519 43.2724C36.2894 43.2911 36.821 43.3142 37.5417 43.3416L37.5797 42.3423ZM36.0074 42.2739H37.0074V20.4946H36.0074H35.0074V42.2739H36.0074ZM44.5523 30.4888L44.9142 31.421C45.7103 31.1119 46.4754 30.7834 47.2094 30.4352L46.7808 29.5317L46.3522 28.6282C45.6643 28.9545 44.9438 29.2641 44.1904 29.5566L44.5523 30.4888ZM46.7808 29.5317L47.2143 30.4329C48.009 30.0506 48.6939 29.5961 49.2444 29.0565L48.5445 28.3423L47.8446 27.6281C47.4837 27.9817 46.9927 28.3201 46.3474 28.6306L46.7808 29.5317ZM48.5445 28.3423L49.2444 29.0565C49.8824 28.4312 50.2281 27.6489 50.2281 26.7563H49.2281H48.2281C48.2281 27.0851 48.118 27.3601 47.8446 27.6281L48.5445 28.3423ZM49.2281 26.7563H50.2281C50.2281 26.0505 49.9276 25.4115 49.2887 25.0169L48.7632 25.8677L48.2378 26.7185C48.2484 26.725 48.2482 26.7266 48.2428 26.7209C48.237 26.7148 48.2306 26.7062 48.2258 26.6969C48.2211 26.688 48.2212 26.6849 48.2228 26.6922C48.2246 26.7 48.2281 26.7203 48.2281 26.7563H49.2281ZM48.7632 25.8677L49.3001 25.024C48.8636 24.7462 48.3746 24.5806 47.8472 24.5806V25.5806V26.5806C47.9396 26.5806 48.0613 26.6063 48.2264 26.7113L48.7632 25.8677ZM47.8472 25.5806V24.5806C47.3921 24.5806 46.9323 24.6804 46.4783 24.8465L46.8218 25.7856L47.1654 26.7248C47.4588 26.6174 47.6825 26.5806 47.8472 26.5806V25.5806ZM46.8218 25.7856L46.4987 24.8393C46.081 24.9819 45.6807 25.151 45.2986 25.3472L45.7554 26.2368L46.2122 27.1264C46.5046 26.9762 46.8153 26.8446 47.145 26.732L46.8218 25.7856ZM45.7554 26.2368L45.2986 25.3472C44.9493 25.5266 44.6461 25.6925 44.3933 25.8442L44.9078 26.7017L45.4223 27.5592C45.6252 27.4374 45.8871 27.2934 46.2122 27.1264L45.7554 26.2368ZM44.9078 26.7017L44.3778 25.8537C44.2665 25.9232 44.1754 25.981 44.1076 26.0253C44.0743 26.0471 44.0409 26.0693 44.0113 26.0901C44.0105 26.0907 43.9231 26.149 43.8452 26.227L44.5523 26.9341L45.2594 27.6412C45.2309 27.6697 45.2072 27.6898 45.1971 27.6982C45.1849 27.7083 45.1754 27.7157 45.1705 27.7194C45.1609 27.7267 45.1557 27.7303 45.1582 27.7285C45.1628 27.7253 45.1762 27.7162 45.2021 27.6993C45.2528 27.6661 45.3303 27.6168 45.4378 27.5497L44.9078 26.7017ZM44.5523 26.9341H43.5523V30.4888H44.5523H45.5523V26.9341H44.5523ZM49.9527 33.8384H50.9527C50.9527 33.2046 50.7398 32.5297 50.1042 32.1132L49.5562 32.9497L49.0082 33.7862C48.9958 33.778 48.9803 33.7652 48.9657 33.7479C48.9513 33.7308 48.9435 33.7162 48.9403 33.7092C48.9351 33.6974 48.9527 33.7297 48.9527 33.8384H49.9527ZM49.5562 32.9497L50.1177 32.1222C49.6607 31.8121 49.1336 31.6899 48.5992 31.6899V32.6899V33.6899C48.8304 33.6899 48.9413 33.7409 48.9947 33.7772L49.5562 32.9497ZM48.5992 32.6899V31.6899C48.0221 31.6899 47.4302 31.8363 46.8384 32.0794L47.2183 33.0044L47.5982 33.9294C48.0273 33.7532 48.3559 33.6899 48.5992 33.6899V32.6899ZM47.2183 33.0044L46.8384 32.0794C46.2919 32.3038 45.7639 32.558 45.2547 32.842L45.7418 33.7153L46.2288 34.5887C46.6675 34.344 47.1239 34.1242 47.5982 33.9294L47.2183 33.0044ZM45.7418 33.7153L45.2547 32.842C44.7896 33.1014 44.4111 33.3011 44.1154 33.4447L44.5523 34.3442L44.9892 35.2437C45.3316 35.0775 45.746 34.858 46.2288 34.5887L45.7418 33.7153ZM44.5523 34.3442H43.5523V37.7896H44.5523H45.5523V34.3442H44.5523ZM44.5523 37.7896L44.9113 38.7229L45.6222 38.4495L45.2632 37.5161L44.9043 36.5828L44.1933 36.8562L44.5523 37.7896ZM45.2632 37.5161L45.6144 38.4524C46.5748 38.0923 47.4181 37.7524 48.1418 37.4329L47.7379 36.5181L47.3339 35.6033C46.654 35.9035 45.8475 36.229 44.9121 36.5798L45.2632 37.5161ZM47.7379 36.5181L48.1517 37.4284C48.9313 37.074 49.5965 36.6417 50.0959 36.1066L49.3648 35.4243L48.6338 34.742C48.3675 35.0273 47.948 35.3241 47.3241 35.6077L47.7379 36.5181ZM49.3648 35.4243L50.0953 36.1072C50.6803 35.4814 50.9527 34.6993 50.9527 33.8384H49.9527H48.9527C48.9527 34.2535 48.8332 34.5287 48.6343 34.7414L49.3648 35.4243Z" fill="black" mask="url(#path-3-outside-1_22_2)"/>
</svg>
