<svg width="89" height="73" viewBox="0 0 89 73" fill="none" xmlns="http://www.w3.org/2000/svg">
<path d="M15.1855 63.8739L28.7056 62.8908L29.5802 66.4962L16.5593 68.8951C16.1007 67.2214 15.6427 65.5477 15.1855 63.8739Z" fill="#FD91E6"/>
<path d="M37.7169 18.5913C39.6776 22.2104 41.639 25.8294 43.6012 29.4484L40.6143 31.3924C38.2433 27.8851 35.8731 24.3777 33.5035 20.8703L37.7169 18.5913Z" fill="#FD91E6"/>
<path d="M67.0061 13.7786L63.4258 26.2783L59.7459 25.5413C60.5499 21.1577 61.3538 16.7738 62.1575 12.3896L67.0061 13.7786Z" fill="#FD91E6"/>
<path d="M86.9194 29.9081L78.9609 36.7897C78.2397 36.0803 77.5178 35.3709 76.7951 34.6616L84.2513 26.8225L86.9194 29.9081Z" fill="#FD91E6"/>
<path d="M17.9823 38.7457L28.7896 43.8265L27.5815 47.0553L16.0104 42.9379L17.9823 38.7457Z" fill="#FD91E6"/>
</svg>
